<svg width="20" height="22" viewBox="0 0 20 22" fill="none" xmlns="http://www.w3.org/2000/svg">
  <path fill-rule="evenodd" clip-rule="evenodd" d="M3.14688 4C2.61344 4 2.18101 4.44772 2.18101 5V19C2.18101 19.5523 2.61344 20 3.14688 20H16.6691C17.2025 20 17.6349 19.5523 17.6349 19V5C17.6349 4.44772 17.2025 4 16.6691 4H3.14688ZM0.249268 5C0.249268 3.34315 1.54657 2 3.14688 2H16.6691C18.2694 2 19.5667 3.34315 19.5667 5V19C19.5667 20.6569 18.2694 22 16.6691 22H3.14688C1.54657 22 0.249268 20.6569 0.249268 19V5Z" fill="black"/>
  <path fill-rule="evenodd" clip-rule="evenodd" d="M13.7715 0C14.3049 0 14.7373 0.447715 14.7373 1V5C14.7373 5.55228 14.3049 6 13.7715 6C13.238 6 12.8056 5.55228 12.8056 5V1C12.8056 0.447715 13.238 0 13.7715 0Z" fill="black"/>
  <path fill-rule="evenodd" clip-rule="evenodd" d="M6.04449 0C6.57793 0 7.01036 0.447715 7.01036 1V5C7.01036 5.55228 6.57793 6 6.04449 6C5.51105 6 5.07862 5.55228 5.07862 5V1C5.07862 0.447715 5.51105 0 6.04449 0Z" fill="black"/>
  <path fill-rule="evenodd" clip-rule="evenodd" d="M0.249268 9C0.249268 8.44771 0.681702 8 1.21514 8H18.6008C19.1342 8 19.5667 8.44771 19.5667 9C19.5667 9.55228 19.1342 10 18.6008 10H1.21514C0.681702 10 0.249268 9.55228 0.249268 9Z" fill="black"/>
</svg>