<svg width="25" height="24" viewBox="0 0 25 24" fill="none" xmlns="http://www.w3.org/2000/svg">
  <path d="M12.9753 7.71437V5.14294" stroke="#000001" stroke-width="2" stroke-linecap="round" stroke-linejoin="round"/>
  <path d="M10.406 14.5715C10.406 15.8572 11.5537 16.2858 12.9755 16.2858C14.3973 16.2858 15.5451 16.2858 15.5451 14.5715C15.5451 12.0001 10.406 12.0001 10.406 9.42864C10.406 7.71436 11.5537 7.71436 12.9755 7.71436C14.3973 7.71436 15.5451 8.36578 15.5451 9.42864" stroke="#000001" stroke-width="2" stroke-linecap="round" stroke-linejoin="round"/>
  <path d="M12.9756 16.2858V18.8572" stroke="#000001" stroke-width="2" stroke-linecap="round" stroke-linejoin="round"/>
  <path d="M12.9754 23.1429C19.1249 23.1429 24.11 18.1541 24.11 12C24.11 5.846 19.1249 0.857178 12.9754 0.857178C6.82595 0.857178 1.84082 5.846 1.84082 12C1.84082 18.1541 6.82595 23.1429 12.9754 23.1429Z" stroke="#000001" stroke-width="2" stroke-linecap="round" stroke-linejoin="round"/>
</svg>