<svg width="25" height="24" viewBox="0 0 25 24" fill="none" xmlns="http://www.w3.org/2000/svg">
  <path fill-rule="evenodd" clip-rule="evenodd" d="M4.96014 15.4645C5.91537 14.5268 7.21094 14 8.56184 14H16.7116C18.0625 14 19.3581 14.5268 20.3133 15.4645C21.2685 16.4021 21.8052 17.6739 21.8052 19V21C21.8052 21.5523 21.3491 22 20.7864 22C20.2238 22 19.7677 21.5523 19.7677 21V19C19.7677 18.2044 19.4457 17.4413 18.8726 16.8787C18.2995 16.3161 17.5221 16 16.7116 16H8.56184C7.7513 16 6.97396 16.3161 6.40082 16.8787C5.82768 17.4413 5.50569 18.2044 5.50569 19V21C5.50569 21.5523 5.0496 22 4.48698 22C3.92436 22 3.46826 21.5523 3.46826 21V19C3.46826 17.6739 4.00491 16.4021 4.96014 15.4645Z" fill="black"/>
  <path fill-rule="evenodd" clip-rule="evenodd" d="M12.6366 4C10.9487 4 9.5804 5.34315 9.5804 7C9.5804 8.65685 10.9487 10 12.6366 10C14.3244 10 15.6927 8.65685 15.6927 7C15.6927 5.34315 14.3244 4 12.6366 4ZM7.54297 7C7.54297 4.23858 9.82344 2 12.6366 2C15.4497 2 17.7301 4.23858 17.7301 7C17.7301 9.76142 15.4497 12 12.6366 12C9.82344 12 7.54297 9.76142 7.54297 7Z" fill="black"/>
</svg>