<svg width="24" height="24" viewBox="0 0 24 24" fill="none" xmlns="http://www.w3.org/2000/svg">
  <path fill-rule="evenodd" clip-rule="evenodd" d="M11.9823 2C9.86368 2 7.83186 2.84285 6.33379 4.34315C4.83572 5.84344 3.99411 7.87827 3.99411 10C3.99411 13.0981 6.00687 16.1042 8.21381 18.4373C9.29687 19.5822 10.3833 20.5195 11.2001 21.1708C11.5041 21.4133 11.7696 21.6152 11.9823 21.7726C12.1949 21.6152 12.4605 21.4133 12.7644 21.1708C13.5812 20.5195 14.6677 19.5822 15.7507 18.4373C17.9577 16.1042 19.9704 13.0981 19.9704 10C19.9704 7.87827 19.1288 5.84344 17.6308 4.34315C16.1327 2.84285 14.1009 2 11.9823 2ZM11.9823 23C11.4284 23.8321 11.4281 23.8319 11.4279 23.8317L11.425 23.8298L11.4183 23.8253L11.3955 23.8098C11.376 23.7966 11.3483 23.7776 11.3128 23.753C11.2419 23.7038 11.14 23.6321 11.0115 23.5392C10.7546 23.3534 10.391 23.0822 9.9561 22.7354C9.0879 22.043 7.92767 21.0428 6.76406 19.8127C4.47766 17.3958 1.99707 13.9019 1.99707 10C1.99707 7.34784 3.04908 4.8043 4.92167 2.92893C6.79426 1.05357 9.33404 0 11.9823 0C14.6305 0 17.1703 1.05357 19.0429 2.92893C20.9155 4.8043 21.9675 7.34784 21.9675 10C21.9675 13.9019 19.4869 17.3958 17.2005 19.8127C16.0369 21.0428 14.8767 22.043 14.0085 22.7354C13.5736 23.0822 13.2099 23.3534 12.953 23.5392C12.8246 23.6321 12.7227 23.7038 12.6517 23.753C12.6163 23.7776 12.5885 23.7966 12.5691 23.8098L12.5462 23.8253L12.5396 23.8298L12.5374 23.8312C12.5372 23.8314 12.5362 23.8321 11.9823 23ZM11.9823 23L12.5362 23.8321C12.2008 24.056 11.7633 24.0556 11.4279 23.8317L11.9823 23Z" fill="black"/>
  <path fill-rule="evenodd" clip-rule="evenodd" d="M11.9824 8C10.8794 8 9.98532 8.89543 9.98532 10C9.98532 11.1046 10.8794 12 11.9824 12C13.0853 12 13.9794 11.1046 13.9794 10C13.9794 8.89543 13.0853 8 11.9824 8ZM7.98828 10C7.98828 7.79086 9.77649 6 11.9824 6C14.1882 6 15.9764 7.79086 15.9764 10C15.9764 12.2091 14.1882 14 11.9824 14C9.77649 14 7.98828 12.2091 7.98828 10Z" fill="black"/>
</svg>
