<svg width="22" height="22" viewBox="0 0 22 22" fill="none" xmlns="http://www.w3.org/2000/svg">
  <path fill-rule="evenodd" clip-rule="evenodd" d="M11.1262 2C6.29132 2 2.37191 6.02944 2.37191 11C2.37191 15.9706 6.29132 20 11.1262 20C15.961 20 19.8804 15.9706 19.8804 11C19.8804 6.02944 15.961 2 11.1262 2ZM0.426514 11C0.426514 4.92487 5.21691 0 11.1262 0C17.0354 0 21.8258 4.92487 21.8258 11C21.8258 17.0751 17.0354 22 11.1262 22C5.21691 22 0.426514 17.0751 0.426514 11Z" fill="black"/>
  <path fill-rule="evenodd" clip-rule="evenodd" d="M11.1262 6C8.44015 6 6.26269 8.23858 6.26269 11C6.26269 13.7614 8.44015 16 11.1262 16C13.8122 16 15.9897 13.7614 15.9897 11C15.9897 8.23858 13.8122 6 11.1262 6ZM4.3173 11C4.3173 7.13401 7.36574 4 11.1262 4C14.8866 4 17.935 7.13401 17.935 11C17.935 14.866 14.8866 18 11.1262 18C7.36574 18 4.3173 14.866 4.3173 11Z" fill="black"/>
  <path fill-rule="evenodd" clip-rule="evenodd" d="M11.1262 10C10.589 10 10.1535 10.4477 10.1535 11C10.1535 11.5523 10.589 12 11.1262 12C11.6634 12 12.0989 11.5523 12.0989 11C12.0989 10.4477 11.6634 10 11.1262 10ZM8.20808 11C8.20808 9.34315 9.51456 8 11.1262 8C12.7378 8 14.0443 9.34315 14.0443 11C14.0443 12.6569 12.7378 14 11.1262 14C9.51456 14 8.20808 12.6569 8.20808 11Z" fill="black"/>
</svg>