<svg width="36" height="36" viewBox="0 0 36 36" fill="none" xmlns="http://www.w3.org/2000/svg">
<rect x="0.5" y="0.5" width="35" height="35" rx="5.5" fill="#F2F2F2" stroke="#F2F2F2"/>
<path d="M5.11101 22.1239C4.79277 21.1728 5.30577 20.1439 6.25681 19.8256L27.4951 12.719C29.3972 12.0825 31.4551 13.1085 32.0916 15.0106L7.40924 23.2697C6.4582 23.5879 5.42924 23.0749 5.11101 22.1239Z" fill="#FF4F00"/>
<path d="M12.4957 15.372C12.7691 14.1196 14.006 13.3259 15.2585 13.5993L21.5926 14.982C22.2188 15.1187 22.6156 15.7372 22.4789 16.3634C22.3422 16.9896 21.7238 17.3865 21.0975 17.2498L12.4957 15.372Z" fill="#FF4F00"/>
<path d="M3.70403 17.4903C5.39546 16.9335 7.21804 17.8532 7.77488 19.5447L8.2153 20.8825C8.5289 21.835 8.01091 22.8615 7.05832 23.1751C6.10574 23.4887 5.07929 22.9707 4.76569 22.0181L3.31702 17.6177L3.70403 17.4903Z" fill="#FF4F00"/>
<path d="M15.3799 23.3878L20.7702 16.4264C21.1627 15.9196 21.8917 15.8268 22.3985 16.2193C22.9053 16.6117 22.9981 17.3407 22.6056 17.8476L18.6365 22.9736C17.8516 23.9872 16.3936 24.1727 15.3799 23.3878Z" fill="#FF4F00"/>
</svg>
