<svg viewBox="0 0 135 135" fill="none" xmlns="http://www.w3.org/2000/svg">
<path d="M86.4 85.8128V103.285C86.4 103.461 86.3299 103.63 86.2051 103.755C86.0804 103.88 85.9112 103.95 85.7347 103.95H79.949C79.7726 103.95 79.6034 103.88 79.4786 103.755C79.3538 103.63 79.2837 103.461 79.2837 103.285V72.9691C79.2837 72.6904 79.173 72.423 78.9759 72.2259C78.7788 72.0288 78.5114 71.9181 78.2327 71.9181H72.46C72.3781 71.9181 72.299 71.9484 72.2379 72.0031C72.1769 72.0578 72.1381 72.1331 72.1291 72.2146L68.8057 102.467C68.7878 102.63 68.7103 102.781 68.5882 102.891C68.4661 103 68.3078 103.061 68.1438 103.061H62.3647C62.271 103.06 62.1784 103.041 62.0929 103.002C62.0073 102.964 61.9309 102.908 61.8684 102.838C61.806 102.768 61.759 102.686 61.7306 102.597C61.7021 102.508 61.6928 102.413 61.7033 102.32L65.005 72.289C65.0101 72.2425 65.0053 72.1955 64.991 72.151C64.9767 72.1064 64.9531 72.0654 64.9219 72.0306C64.8907 71.9958 64.8525 71.9679 64.8098 71.9488C64.7671 71.9297 64.7209 71.9198 64.6741 71.9198H55.4191C55.1403 71.9198 54.873 72.0306 54.6759 72.2277C54.4788 72.4248 54.368 72.6921 54.368 72.9709V103.285C54.368 103.461 54.2979 103.63 54.1732 103.755C54.0484 103.88 53.8792 103.95 53.7027 103.95H47.9153C47.7389 103.95 47.5696 103.88 47.4449 103.755C47.3201 103.63 47.25 103.461 47.25 103.285V69.0888C47.25 67.9514 47.7018 66.8605 48.5061 66.0562C49.3104 65.2519 50.4013 64.8 51.5388 64.8H82.1112C83.2487 64.8 84.3396 65.2519 85.1439 66.0562C85.9482 66.8605 86.4 67.9514 86.4 69.0888V85.8128Z" fill="white"/>
<path d="M68.2627 71.55H85.7347C85.9112 71.55 86.0804 71.4799 86.2051 71.3552C86.3299 71.2304 86.4 71.0612 86.4 70.8847V65.099C86.4 64.9226 86.3299 64.7534 86.2051 64.6286C86.0804 64.5038 85.9112 64.4337 85.7347 64.4337H55.4191C55.1403 64.4337 54.873 64.323 54.6759 64.1259C54.4788 63.9288 54.368 63.6614 54.368 63.3827V57.6101C54.3681 57.5281 54.3983 57.449 54.453 57.3879C54.5078 57.3269 54.5831 57.2882 54.6645 57.2792L84.9174 53.954C85.0804 53.936 85.2311 53.8586 85.3405 53.7365C85.45 53.6143 85.5105 53.4561 85.5105 53.2921V47.5147C85.5104 47.421 85.4906 47.3284 85.4524 47.2429C85.4141 47.1574 85.3582 47.0809 85.2883 47.0185C85.2184 46.956 85.1362 46.9091 85.0469 46.8806C84.9576 46.8522 84.8634 46.8429 84.7703 46.8533L54.739 50.155C54.6925 50.1601 54.6455 50.1553 54.6009 50.141C54.5564 50.1267 54.5154 50.1032 54.4805 50.072C54.4457 50.0407 54.4178 50.0025 54.3988 49.9598C54.3797 49.9171 54.3698 49.8709 54.3698 49.8241V40.5691C54.3698 40.2904 54.4805 40.023 54.6776 39.8259C54.8747 39.6288 55.1421 39.518 55.4208 39.518H85.7347C85.9112 39.518 86.0804 39.448 86.2051 39.3232C86.3299 39.1984 86.4 39.0292 86.4 38.8527V33.0653C86.4 32.8889 86.3299 32.7197 86.2051 32.5949C86.0804 32.4701 85.9112 32.4 85.7347 32.4H51.5388C50.4013 32.4 49.3104 32.8519 48.5061 33.6562C47.7018 34.4605 47.25 35.5513 47.25 36.6888V67.2613C47.25 68.3987 47.7018 69.4896 48.5061 70.2939C49.3104 71.0982 50.4013 71.55 51.5388 71.55H68.2627Z" fill="white"/>
</svg>
