<svg width="36" height="36" viewBox="0 0 36 36" fill="none" xmlns="http://www.w3.org/2000/svg">
<rect width="36" height="36" rx="6" fill="#F2F2F2"/>
<path d="M13.9355 14.8064C13.9355 13.684 14.8454 12.7742 15.9677 12.7742C17.0901 12.7742 18 13.684 18 14.8064V24.3871H13.9355V14.8064Z" fill="#808080"/>
<path d="M11.1874 28.8007C10.4908 28.0137 10.5642 26.8109 11.3512 26.1143L23.6872 15.1967C24.4743 14.5002 25.677 14.5735 26.3736 15.3606C27.0702 16.1477 26.9968 17.3504 26.2097 18.047L13.8738 28.9646C13.0867 29.6612 11.884 29.5878 11.1874 28.8007Z" fill="#FF4F00"/>
<path d="M6.38712 27.5187C6.38712 26.4676 7.23916 25.6156 8.29021 25.6156H12.4992C13.5502 25.6156 14.4023 26.4676 14.4023 27.5187C14.4023 28.5697 13.5502 29.4218 12.4992 29.4218H8.29021C7.23916 29.4218 6.38712 28.5697 6.38712 27.5187Z" fill="#FF4F00"/>
<path d="M23.443 16.4577C23.443 15.4066 24.295 14.5546 25.3461 14.5546H29.5551C30.6061 14.5546 31.4582 15.4066 31.4582 16.4577C31.4582 17.5087 30.6061 18.3607 29.5551 18.3607H25.3461C24.295 18.3607 23.443 17.5087 23.443 16.4577Z" fill="#FF4F00"/>
<ellipse cx="15.9677" cy="10.1613" rx="2.03226" ry="2.03226" fill="#333333"/>
</svg>
