<svg width="18" height="20" viewBox="0 0 18 20" fill="none" xmlns="http://www.w3.org/2000/svg">
<path d="M9 13.4176C7.25285 13.4259 5.53937 12.9564 4.06 12.064C3.97424 12.0114 3.90019 11.943 3.84215 11.8627C3.7841 11.7825 3.7432 11.692 3.72181 11.5965C3.70042 11.5009 3.69897 11.4023 3.71754 11.3062C3.73611 11.2102 3.77433 11.1186 3.83 11.0368C3.88305 10.954 3.95279 10.8822 4.03513 10.8257C4.11747 10.7691 4.21076 10.729 4.3095 10.7075C4.40825 10.686 4.51046 10.6837 4.61015 10.7007C4.70984 10.7177 4.80498 10.7536 4.89 10.8064C6.12783 11.5316 7.54989 11.9152 9 11.9152C10.4501 11.9152 11.8722 11.5316 13.11 10.8064C13.195 10.7536 13.2902 10.7177 13.3899 10.7007C13.4895 10.6837 13.5918 10.686 13.6905 10.7075C13.7892 10.729 13.8825 10.7691 13.9649 10.8257C14.0472 10.8822 14.117 10.954 14.17 11.0368C14.2257 11.1186 14.2639 11.2102 14.2825 11.3062C14.301 11.4023 14.2996 11.5009 14.2782 11.5965C14.2568 11.692 14.2159 11.7825 14.1579 11.8627C14.0998 11.943 14.0258 12.0114 13.94 12.064C12.4606 12.9564 10.7471 13.4259 9 13.4176ZM11 15.28L16 17.2L18 18.16V18.5248C18.0012 18.6893 17.9584 18.8513 17.8756 18.9953C17.7928 19.1393 17.6729 19.2604 17.5274 19.3472C17.3818 19.4339 17.2155 19.4833 17.0444 19.4906C16.8732 19.4979 16.703 19.4628 16.55 19.3888L10 17.2H2.89C2.12352 17.2 1.38844 16.9077 0.846461 16.3874C0.304481 15.8671 0 15.1614 0 14.4256V3.65441C0 2.91859 0.304481 2.21291 0.846461 1.69261C1.38844 1.17231 2.12352 0.880005 2.89 0.880005H15.11C16.71 0.880005 18 2.1184 18 2.6944V18.16L16 17.2V3.97121C16 3.8174 15.9684 3.6651 15.9071 3.52301C15.8458 3.38091 15.756 3.2518 15.6427 3.14304C15.5294 3.03429 15.3949 2.94802 15.2469 2.88916C15.0989 2.8303 14.9402 2.8 14.78 2.8H3.22C3.05979 2.8 2.90114 2.8303 2.75313 2.88916C2.60511 2.94802 2.47062 3.03429 2.35733 3.14304C2.24404 3.2518 2.15418 3.38091 2.09287 3.52301C2.03156 3.6651 2 3.8174 2 3.97121V14.1088C2 14.7558 2.546 15.28 3.22 15.28H11Z" fill="#A8A8A8"/>
</svg>
