<svg width="25" height="25" viewBox="0 0 25 25" fill="none" xmlns="http://www.w3.org/2000/svg">
<path d="M14.3379 2.9816H6.33789C5.80746 2.9816 5.29875 3.19231 4.92368 3.56738C4.5486 3.94246 4.33789 4.45116 4.33789 4.9816V20.9816C4.33789 21.512 4.5486 22.0207 4.92368 22.3958C5.29875 22.7709 5.80746 22.9816 6.33789 22.9816H18.3379C18.8683 22.9816 19.377 22.7709 19.7521 22.3958C20.1272 22.0207 20.3379 21.512 20.3379 20.9816V8.9816L14.3379 2.9816Z" stroke="#A8A8A8" stroke-width="2" stroke-linecap="round" stroke-linejoin="round"/>
<path d="M14.3379 2.9816V8.9816H20.3379" stroke="#A8A8A8" stroke-width="2" stroke-linecap="round" stroke-linejoin="round"/>
<path d="M16.3379 13.9816H8.33789" stroke="#A8A8A8" stroke-width="2" stroke-linecap="round" stroke-linejoin="round"/>
<path d="M16.3379 17.9816H8.33789" stroke="#A8A8A8" stroke-width="2" stroke-linecap="round" stroke-linejoin="round"/>
<path d="M10.3379 9.9816H9.33789H8.33789" stroke="#A8A8A8" stroke-width="2" stroke-linecap="round" stroke-linejoin="round"/>
</svg>
