<svg width="178" height="22" viewBox="0 0 178 22" fill="none" xmlns="http://www.w3.org/2000/svg">
<path d="M162.83 10.2632C162.647 10.2576 162.465 10.2925 162.296 10.3659C162.126 10.4392 161.974 10.5491 161.849 10.6885C161.58 11.0126 161.442 11.4333 161.464 11.8616C161.44 12.2965 161.578 12.7241 161.849 13.0553C161.973 13.1965 162.125 13.3081 162.294 13.3825C162.463 13.4569 162.646 13.4923 162.83 13.4865C163.011 13.4918 163.192 13.456 163.359 13.3816C163.527 13.3072 163.677 13.1959 163.799 13.0553C164.046 12.7141 164.18 12.2981 164.18 11.8704C164.18 11.4427 164.046 11.0267 163.799 10.6855C163.675 10.5476 163.525 10.4387 163.358 10.3659C163.191 10.2931 163.011 10.2581 162.83 10.2632ZM175.695 2.61707H148.511C148.064 2.61707 147.635 2.80247 147.319 3.13248C147.003 3.4625 146.825 3.9101 146.825 4.37682V17.8683C146.825 18.335 147.003 18.7826 147.319 19.1126C147.635 19.4426 148.064 19.628 148.511 19.628H175.695C176.143 19.628 176.571 19.4426 176.888 19.1126C177.204 18.7826 177.381 18.335 177.381 17.8683V4.37682C177.381 3.9101 177.204 3.4625 176.888 3.13248C176.571 2.80247 176.143 2.61707 175.695 2.61707ZM157.994 15.2668H155.875V14.3869C155.547 15.0468 154.909 15.3753 153.956 15.3753C153.507 15.3874 153.062 15.2931 152.653 15.0996C152.307 14.9439 152.014 14.6846 151.81 14.3546C151.62 14.0343 151.522 13.6637 151.529 13.287C151.517 12.9961 151.575 12.7066 151.699 12.4456C151.823 12.1846 152.008 11.9605 152.237 11.7942C152.709 11.4393 153.434 11.2604 154.417 11.2604H155.71C155.67 10.5448 155.211 10.1869 154.333 10.1869C154.012 10.189 153.692 10.2414 153.386 10.3424C153.092 10.4344 152.816 10.5804 152.571 10.7735L151.807 9.16042C152.209 8.88919 152.651 8.69087 153.116 8.57384C153.623 8.43765 154.144 8.36867 154.667 8.36853C155.746 8.36853 156.569 8.62467 157.134 9.13696C157.7 9.64924 157.981 10.4314 157.977 11.4833L157.994 15.2668ZM166.423 15.2668H164.257V14.5893C163.834 15.1133 163.199 15.3763 162.352 15.3782C161.786 15.3849 161.227 15.2362 160.733 14.9471C160.246 14.6576 159.845 14.2308 159.579 13.7152C159.3 13.1428 159.154 12.5097 159.154 11.8675C159.154 11.2253 159.3 10.5922 159.579 10.0198C159.846 9.5084 160.246 9.08641 160.733 8.8026C161.228 8.51663 161.786 8.37007 162.352 8.37733C162.681 8.356 163.011 8.40712 163.321 8.52736C163.63 8.64761 163.912 8.8343 164.147 9.07536V5.98993H166.423V15.2668ZM173.082 14.296C172.796 14.6633 172.416 14.9387 171.987 15.0908C171.427 15.297 170.837 15.3963 170.245 15.3841C169.704 15.3844 169.166 15.3195 168.64 15.1905C168.193 15.0943 167.764 14.9229 167.37 14.6831L168.053 13.0583C168.381 13.2634 168.736 13.4176 169.107 13.5158C169.502 13.6257 169.909 13.6819 170.318 13.683C170.584 13.7003 170.851 13.6603 171.101 13.5657C171.169 13.5391 171.228 13.4919 171.269 13.4302C171.311 13.3685 171.334 13.2951 171.335 13.2196C171.335 13.07 171.239 12.9644 171.054 12.9028C170.761 12.8172 170.462 12.7564 170.16 12.721C169.713 12.6683 169.271 12.5801 168.837 12.457C168.478 12.3548 168.152 12.152 167.896 11.8704C167.618 11.5302 167.477 11.0908 167.502 10.6445C167.497 10.2266 167.628 9.81923 167.873 9.4889C168.158 9.12374 168.533 8.84685 168.958 8.68822C169.503 8.47937 170.082 8.37987 170.663 8.39493C171.135 8.39467 171.606 8.44479 172.068 8.5445C172.474 8.62188 172.865 8.76539 173.228 8.96978L172.546 10.5829C171.975 10.2494 171.331 10.0766 170.677 10.0814C170.408 10.0651 170.139 10.1101 169.888 10.2133C169.818 10.2385 169.758 10.2845 169.713 10.3456C169.669 10.4066 169.642 10.48 169.638 10.5565C169.638 10.7149 169.728 10.8263 169.919 10.8879C170.217 10.9779 170.521 11.0427 170.829 11.0815C171.278 11.1487 171.722 11.2466 172.158 11.3748C172.508 11.4816 172.824 11.6841 173.074 11.9614C173.348 12.2953 173.487 12.7276 173.462 13.1668C173.46 13.5769 173.326 13.9745 173.082 14.296ZM153.74 13.1903C153.736 13.2865 153.754 13.3823 153.794 13.4693C153.834 13.5562 153.893 13.6316 153.968 13.6889C154.148 13.8235 154.367 13.8898 154.589 13.8766C154.835 13.8829 155.077 13.8136 155.285 13.6771C155.489 13.539 155.641 13.3318 155.715 13.0905V12.504H154.735C154.072 12.4893 153.74 12.7327 153.74 13.1903Z" fill="white"/>
<path d="M104.005 6.58853L101.351 6.58276C101.347 6.58276 101.345 6.58507 101.345 6.58853V16.7633L103.999 16.769L104.005 6.58853Z" fill="white"/>
<path d="M117.422 16.7691L117.428 2.66086L114.773 2.65509L114.767 7.92592H114.378L114.322 7.85322C114.104 7.57053 113.839 7.31091 113.51 7.06052C113.035 6.72475 112.251 6.27244 111.006 6.27244C108.163 6.27244 106.1 8.54438 106.1 11.676C106.1 14.8075 108.163 17.0795 111.006 17.0795C112.251 17.0795 113.035 16.6272 113.516 16.2879C113.839 16.0422 114.104 15.7825 114.322 15.4987L114.378 15.426H114.767V16.7633L117.422 16.7691ZM111.764 14.9552C110.032 14.9552 108.87 13.6375 108.87 11.6771C108.87 9.71671 110.033 8.399 111.764 8.399C113.588 8.399 114.767 9.68555 114.767 11.6771C114.767 13.6675 113.589 14.9552 111.764 14.9552Z" fill="white"/>
<path d="M102.675 2.13922C101.822 2.13922 101.128 2.75538 101.128 3.51116C101.128 4.26693 101.822 4.88309 102.675 4.88309C103.528 4.88309 104.222 4.26693 104.222 3.51116C104.222 2.75538 103.529 2.13922 102.675 2.13922Z" fill="white"/>
<path d="M136.191 16.769L136.197 6.58855L133.542 6.58278L133.536 7.92587H133.147L133.091 7.85318C132.874 7.57048 132.609 7.31087 132.28 7.06048C131.805 6.72471 131.021 6.27239 129.775 6.27239C126.933 6.27239 124.87 8.54434 124.87 11.6759C124.87 14.8075 126.933 17.0794 129.775 17.0794C131.021 17.0794 131.805 16.6271 132.286 16.2879C132.609 16.0421 132.874 15.7825 133.091 15.4986L133.147 15.426H133.536V16.7633L136.191 16.769ZM130.535 14.9552C128.803 14.9552 127.64 13.6375 127.64 11.6771C127.64 9.71666 128.804 8.39895 130.535 8.39895C132.358 8.39895 133.538 9.68551 133.538 11.6771C133.536 13.6675 132.358 14.9552 130.535 14.9552Z" fill="white"/>
<path d="M98.7285 16.769L98.7346 10.5393C98.7346 7.78849 97.3002 6.27347 94.6963 6.27347C93.3187 6.27347 92.5459 6.78002 92.0246 7.22079C91.7271 7.48618 91.4767 7.79772 91.2856 8.14272L91.2324 8.23734H90.8998L90.8466 8.14272C90.6543 7.79657 90.4052 7.48618 90.104 7.21848C89.3663 6.59309 88.4314 6.27463 87.3283 6.27463C86.4007 6.27463 85.6194 6.55155 84.9373 7.11925C84.6603 7.34541 84.433 7.61426 84.2407 7.9408L84.1874 8.03195H83.7835V6.58848L81.1288 6.58271C81.1251 6.58271 81.1227 6.58501 81.1227 6.58848V16.7632L83.7774 16.769L83.7835 11.2628C83.7835 9.60235 84.8647 8.39773 86.3535 8.39773C87.3779 8.39773 88.5983 8.8235 88.5983 10.8497V16.7632L91.253 16.769L91.259 11.2628C91.259 9.60235 92.3403 8.39773 93.8291 8.39773C94.8535 8.39773 96.0738 8.8235 96.0738 10.8497V16.7632L98.7285 16.769Z" fill="white"/>
<path d="M122.776 6.58853L120.121 6.58276C120.118 6.58276 120.115 6.58507 120.115 6.58853V16.7633L122.77 16.769L122.776 6.58853Z" fill="white"/>
<path d="M121.446 4.88309C122.3 4.88309 122.992 4.26886 122.992 3.51116C122.992 2.75346 122.3 2.13922 121.446 2.13922C120.591 2.13922 119.899 2.75346 119.899 3.51116C119.899 4.26886 120.591 4.88309 121.446 4.88309Z" fill="white"/>
<path d="M62.1781 11.3666C62.1781 9.79046 63.246 8.81199 64.9646 8.81199H66.3966L66.4027 6.38312L65.2888 6.37735C64.4494 6.37735 63.7443 6.65774 63.1916 7.21159C62.9485 7.44351 62.7659 7.71352 62.6461 8.01929L62.6002 8.13468H62.1769V6.5885L59.5222 6.58274C59.5185 6.58274 59.5161 6.58504 59.5161 6.5885V16.7632L62.1708 16.769L62.1781 11.3666Z" fill="white"/>
<path d="M48.8948 11.6759C48.8948 8.59511 46.4602 6.27239 43.231 6.27239C39.9945 6.27239 37.4595 8.64588 37.4595 11.6759C37.4595 14.7059 39.9945 17.0794 43.231 17.0794C45.1165 17.0794 46.6368 16.4737 47.7495 15.2794C48.1558 14.8236 48.4691 14.3148 48.7037 13.7252L45.8313 13.7148C45.6946 13.9259 45.5265 14.1175 45.3257 14.2894C44.9411 14.579 44.3171 14.9552 43.2298 14.9552C41.7857 14.9552 40.4952 13.8255 40.2291 12.3267L40.1929 12.119H48.8875L48.8948 11.6759ZM40.2739 10.7171L40.344 10.4886C40.7359 9.21819 41.8692 8.3978 43.231 8.3978C44.8395 8.3978 45.801 9.48935 46.0139 10.5047L46.0587 10.7171H40.2739Z" fill="white"/>
<path d="M32.664 2.66188V16.7643L35.3187 16.7701L35.3247 2.66188L32.67 2.65611C32.6676 2.65496 32.664 2.65842 32.664 2.66188Z" fill="white"/>
<path d="M30.2536 13.7252L27.3812 13.7148C27.2458 13.9236 27.0813 14.1117 26.8853 14.2813L26.8611 14.3009C26.485 14.5825 25.8634 14.954 24.7809 14.954C23.3368 14.954 22.0464 13.8244 21.7803 12.3255L21.744 12.1178H30.4387L30.4447 11.6759C30.4447 8.59511 28.0101 6.27239 24.7809 6.27239C21.5444 6.27239 19.0095 8.64588 19.0095 11.6759C19.0095 14.7059 21.5444 17.0794 24.7809 17.0794C26.6664 17.0794 28.1867 16.4737 29.2994 15.2794C29.7058 14.8236 30.019 14.3148 30.2536 13.7252ZM21.8928 10.4886C22.2846 9.21819 23.4179 8.3978 24.7797 8.3978C26.3883 8.3978 27.3498 9.48935 27.5626 10.5047L27.6074 10.7171H21.8226L21.8928 10.4886Z" fill="white"/>
<path d="M54.9807 16.769H57.2798L57.2859 14.6505L55.5225 14.6448C54.7025 14.6448 54.0361 14.009 54.0361 13.2267V8.70816H57.1492L57.1553 6.58968L54.0349 6.58391V4.33619L51.3802 4.33042L51.3741 6.58275H49.9724C49.9688 6.58275 49.9663 6.58506 49.9663 6.58852V8.70124L51.3741 8.70701V13.2255C51.3753 15.5113 52.6549 16.769 54.9807 16.769Z" fill="white"/>
<path d="M73.2336 6.27347C69.881 6.27347 67.3533 8.59619 67.3533 11.677C67.3533 14.7578 69.881 17.0805 73.2336 17.0805C76.5305 17.0805 79.1139 14.707 79.1139 11.677C79.1139 8.64581 76.5317 6.27347 73.2336 6.27347ZM73.2336 14.9551C71.4303 14.9551 70.1217 13.5762 70.1217 11.677C70.1217 9.77774 71.4303 8.39888 73.2336 8.39888C75.0369 8.39888 76.3455 9.77774 76.3455 11.677C76.3455 13.5762 75.0369 14.9551 73.2336 14.9551Z" fill="white"/>
<path d="M11.5725 9.54241H3.01447C2.95762 9.54241 2.91045 9.49856 2.91045 9.44318V7.56008C2.91045 7.50931 2.95037 7.46662 3.00358 7.462L12.4493 6.47084C12.5545 6.4593 12.6344 6.37507 12.6344 6.27353V4.55197C12.6344 4.43428 12.5267 4.34197 12.4034 4.35466L3.02535 5.33775C2.96367 5.34467 2.91045 5.29852 2.91045 5.23967V2.43349C2.91045 2.26041 3.0568 2.12079 3.23821 2.12079H12.69C12.8049 2.12079 12.898 2.03194 12.898 1.92233V0.198464C12.898 0.0888471 12.8049 0 12.69 0H2.02756C1.28738 0 0.6875 0.572314 0.6875 1.27732V21.0071C0.6875 21.1168 0.780627 21.2056 0.895524 21.2056H2.70243C2.81733 21.2056 2.91045 21.1168 2.91045 21.0071V11.7624C2.91045 11.7082 2.95641 11.6632 3.01447 11.6632H6.12878C6.19046 11.6632 6.23884 11.714 6.23158 11.7728L5.20114 20.7198C5.18783 20.8375 5.28338 20.9402 5.40795 20.9402H7.21244C7.31887 20.9402 7.40716 20.8641 7.41925 20.7637L8.45816 11.752C8.46421 11.7013 8.50896 11.6632 8.56097 11.6632H10.3618C10.5432 11.6632 10.6896 11.8028 10.6896 11.9759V21.006C10.6896 21.1156 10.7827 21.2045 10.8976 21.2045H12.7045C12.8194 21.2045 12.9125 21.1156 12.9125 21.006V10.8197C12.9113 10.1136 12.3114 9.54241 11.5725 9.54241Z" fill="white"/>
</svg>
