<svg width="16" height="15" viewBox="0 0 16 15" fill="none" xmlns="http://www.w3.org/2000/svg">
<path fill-rule="evenodd" clip-rule="evenodd" d="M11.5032 3.0515C11.1153 3.81814 10.856 4.9239 10.856 6.18169C10.856 7.43948 11.1153 8.54524 11.5032 9.31188C11.9112 10.1184 12.3501 10.3634 12.6343 10.3634C12.9185 10.3634 13.3574 10.1184 13.7655 9.31188C14.1533 8.54524 14.4127 7.43948 14.4127 6.18169C14.4127 4.9239 14.1533 3.81814 13.7655 3.0515C13.3574 2.24498 12.9185 1.99996 12.6343 1.99996C12.3501 1.99996 11.9112 2.24498 11.5032 3.0515ZM3.02745 4.9987L10.1568 2.75227C9.743 3.70041 9.50681 4.89969 9.50681 6.18169C9.50681 7.46368 9.743 8.66297 10.1568 9.61111L3.02745 7.36467L3.01494 7.36086C2.77885 7.29143 2.57479 7.14253 2.43816 6.93998C2.30152 6.73743 2.24093 6.49401 2.26688 6.25193C2.27189 6.20523 2.27189 6.15814 2.26688 6.11144C2.24093 5.86937 2.30152 5.62595 2.43816 5.4234C2.57479 5.22085 2.77885 5.07195 3.01494 5.00252L3.02745 4.9987ZM2.62335 3.72657L11.9487 0.788195C12.1624 0.710013 12.3911 0.666626 12.6343 0.666626C13.7048 0.666626 14.4924 1.50696 14.9722 2.45521C15.4721 3.44335 15.7618 4.76179 15.7618 6.18169C15.7618 7.60159 15.4721 8.92003 14.9722 9.90816C14.4924 10.8564 13.7048 11.6968 12.6343 11.6968C12.3911 11.6968 12.1624 11.6534 11.9487 11.5752L8.29434 10.4237L8.88979 12.202C9.0687 12.6585 9.06036 13.1663 8.86593 13.6172C8.66846 14.0752 8.29516 14.437 7.82801 14.6232L7.82704 14.6235C7.3596 14.809 6.83678 14.8036 6.3734 14.6084C5.91001 14.4132 5.54393 14.0443 5.35554 13.5826C5.35215 13.5743 5.34893 13.566 5.34588 13.5575L3.68898 8.97258L2.62335 8.63681C2.08816 8.47772 1.6257 8.13927 1.3156 7.67958C1.01741 7.23754 0.878132 6.71008 0.918784 6.18169C0.878132 5.65329 1.01741 5.12584 1.3156 4.6838C1.6257 4.22411 2.08816 3.88566 2.62335 3.72657ZM6.70563 9.92311L5.30568 9.482L6.61096 13.0939C6.66679 13.2233 6.77112 13.3266 6.90231 13.3818C7.03673 13.4384 7.18836 13.4401 7.32398 13.3864C7.45936 13.3322 7.56753 13.2273 7.62479 13.0945C7.68213 12.9615 7.68373 12.8115 7.62924 12.6774C7.62403 12.6646 7.61922 12.6516 7.61482 12.6384L6.70563 9.92311ZM13.0094 4.97557C13.31 5.30714 13.4767 5.73648 13.4775 6.1817C13.4767 6.62692 13.31 7.05626 13.0094 7.38782C12.7087 7.71939 12.2951 7.92997 11.8474 7.97941C11.7053 7.39055 11.6349 6.78705 11.6376 6.1817C11.6349 5.57635 11.7053 4.97285 11.8474 4.38399C12.2951 4.43343 12.7087 4.64401 13.0094 4.97557Z" fill="#333333"/>
</svg>
