<svg width="17" height="10" viewBox="0 0 17 10" fill="none" xmlns="http://www.w3.org/2000/svg">
<path fill-rule="evenodd" clip-rule="evenodd" d="M16.2295 0.528636C16.4929 0.788986 16.4929 1.2111 16.2295 1.47145L9.82102 7.80478C9.55758 8.06513 9.13047 8.06513 8.86703 7.80478L5.97117 4.94285L1.38887 9.47145C1.12543 9.7318 0.698319 9.7318 0.434882 9.47145C0.171446 9.2111 0.171446 8.78899 0.434882 8.52864L5.49417 3.52864C5.75761 3.26829 6.18472 3.26829 6.44816 3.52864L9.34402 6.39057L15.2755 0.528636C15.5389 0.268287 15.966 0.268287 16.2295 0.528636Z" fill="#333333"/>
<path fill-rule="evenodd" clip-rule="evenodd" d="M11.0305 1.00004C11.0305 0.631851 11.3325 0.333374 11.705 0.333374H15.7525C16.125 0.333374 16.427 0.631851 16.427 1.00004V5.00004C16.427 5.36823 16.125 5.66671 15.7525 5.66671C15.3799 5.66671 15.0779 5.36823 15.0779 5.00004V1.66671H11.705C11.3325 1.66671 11.0305 1.36823 11.0305 1.00004Z" fill="#333333"/>
</svg>
